{
	"asset":{
		"version":"2.0",
		"generator":"Houdini GLTF 2.0 Exporter"
	},
	"accessors":[
		{
			"bufferView":0,
			"componentType":5123,
			"count":2568,
			"type":"SCALAR",
			"min":[0
			],
			"max":[2567
			]
		},
		{
			"bufferView":1,
			"componentType":5126,
			"count":2568,
			"type":"VEC3",
			"min":[-54.1655273,0,-16.223877
			],
			"max":[56.6383629,54.0221634,25.1934547
			]
		},
		{
			"bufferView":2,
			"componentType":5126,
			"count":2568,
			"type":"VEC3",
			"min":[-0.998280764,-0.944678426,-0.99999404
			],
			"max":[0.994417727,0.999697924,0.99999404
			]
		},
		{
			"bufferView":3,
			"componentType":5126,
			"count":2568,
			"type":"VEC2",
			"min":[0.0139118135,0.0313016176
			],
			"max":[0.982096791,0.972430587
			]
		},
		{
			"bufferView":4,
			"componentType":5126,
			"count":2568,
			"type":"VEC4",
			"min":[-0.978616953,-0.999268889,-1,1
			],
			"max":[1,0.995249152,1,1
			]
		}
	],
	"buffers":[
		{
			"uri":"moon_rock_data.bin",
			"byteLength":128400,
			"name":"main_buffer"
		}
	],
	"bufferViews":[
		{
			"buffer":0,
			"byteLength":5136,
			"target":34963
		},
		{
			"buffer":0,
			"byteOffset":5136,
			"byteLength":30816,
			"target":34962
		},
		{
			"buffer":0,
			"byteOffset":35952,
			"byteLength":30816,
			"target":34962
		},
		{
			"buffer":0,
			"byteOffset":66768,
			"byteLength":20544,
			"target":34962
		},
		{
			"buffer":0,
			"byteOffset":87312,
			"byteLength":41088,
			"target":34962
		}
	],
	"nodes":[
		{
			"name":"moon_rock",
			"mesh":0
		}
	],
	"meshes":[
		{
			"primitives":[
				{
					"attributes":{
						"TANGENT":4,
						"TEXCOORD_0":3,
						"NORMAL":2,
						"POSITION":1
					},
					"indices":0
				}
			]
		}
	],
	"scenes":[
		{
			"nodes":[0
			]
		}
	],
	"scene":0
}
