{
	"asset":{
		"version":"2.0",
		"generator":"Houdini GLTF 2.0 Exporter"
	},
	"accessors":[
		{
			"bufferView":0,
			"componentType":5123,
			"count":1332,
			"type":"SCALAR",
			"min":[0
			],
			"max":[1331
			]
		},
		{
			"bufferView":1,
			"componentType":5126,
			"count":1332,
			"type":"VEC3",
			"min":[-15.9083557,-0.000132443514,-15.905529
			],
			"max":[15.9072971,22.1994743,15.9089441
			]
		},
		{
			"bufferView":2,
			"componentType":5126,
			"count":1332,
			"type":"VEC2",
			"min":[0.00974657014,-8.65678215
			],
			"max":[9.97804546,0.990253389
			]
		},
		{
			"bufferView":3,
			"componentType":5126,
			"count":1332,
			"type":"VEC3",
			"min":[-1,-0.997663021,-1
			],
			"max":[1,0.997038543,1
			]
		}
	],
	"buffers":[
		{
			"uri":"pyramid_data.bin",
			"byteLength":45288,
			"name":"main_buffer"
		}
	],
	"bufferViews":[
		{
			"buffer":0,
			"byteLength":2664,
			"target":34963
		},
		{
			"buffer":0,
			"byteOffset":2664,
			"byteLength":15984,
			"target":34962
		},
		{
			"buffer":0,
			"byteOffset":18648,
			"byteLength":10656,
			"target":34962
		},
		{
			"buffer":0,
			"byteOffset":29304,
			"byteLength":15984,
			"target":34962
		}
	],
	"nodes":[
		{
			"name":"piramid",
			"mesh":0
		}
	],
	"meshes":[
		{
			"primitives":[
				{
					"attributes":{
						"NORMAL":3,
						"TEXCOORD_0":2,
						"POSITION":1
					},
					"indices":0
				}
			]
		}
	],
	"scenes":[
		{
			"nodes":[0
			]
		}
	],
	"scene":0
}
