{
	"asset":{
		"version":"2.0",
		"generator":"Houdini GLTF 2.0 Exporter"
	},
	"accessors":[
		{
			"bufferView":0,
			"componentType":5121,
			"count":84,
			"type":"SCALAR",
			"min":[0
			],
			"max":[83
			]
		},
		{
			"bufferView":1,
			"componentType":5126,
			"count":84,
			"type":"VEC3",
			"min":[-17.4486885,0,-15.8976936
			],
			"max":[17.4486885,22.3761234,15.8976936
			]
		},
		{
			"bufferView":2,
			"componentType":5126,
			"count":84,
			"type":"SCALAR",
			"min":[-2.18014145
			],
			"max":[2.63762689
			]
		},
		{
			"bufferView":3,
			"componentType":5126,
			"count":84,
			"type":"VEC2",
			"min":[0.00974658877,-8.58998013
			],
			"max":[9.96761227,0.990253389
			]
		},
		{
			"bufferView":4,
			"componentType":5126,
			"count":84,
			"type":"VEC3",
			"min":[-1,-1,-0.820022941
			],
			"max":[1,0.864358425,1
			]
		}
	],
	"buffers":[
		{
			"uri":"pyramid_data.bin",
			"byteLength":3108,
			"name":"main_buffer"
		}
	],
	"bufferViews":[
		{
			"buffer":0,
			"byteLength":84,
			"target":34963
		},
		{
			"buffer":0,
			"byteOffset":84,
			"byteLength":1008,
			"target":34962
		},
		{
			"buffer":0,
			"byteOffset":1092,
			"byteLength":336,
			"target":34962
		},
		{
			"buffer":0,
			"byteOffset":1428,
			"byteLength":672,
			"target":34962
		},
		{
			"buffer":0,
			"byteOffset":2100,
			"byteLength":1008,
			"target":34962
		}
	],
	"nodes":[
		{
			"name":"piramid",
			"mesh":0
		}
	],
	"meshes":[
		{
			"primitives":[
				{
					"attributes":{
						"NORMAL":4,
						"TEXCOORD_0":3,
						"_curvature":2,
						"POSITION":1
					},
					"indices":0
				}
			]
		}
	],
	"scenes":[
		{
			"nodes":[0
			]
		}
	],
	"scene":0
}
