{
	"asset":{
		"version":"2.0",
		"generator":"Houdini GLTF 2.0 Exporter"
	},
	"accessors":[
		{
			"bufferView":0,
			"componentType":5123,
			"count":6021,
			"type":"SCALAR",
			"min":[0
			],
			"max":[6020
			]
		},
		{
			"bufferView":1,
			"componentType":5126,
			"count":6021,
			"type":"VEC2",
			"min":[0,0.00076675415
			],
			"max":[0.999970257,1
			]
		},
		{
			"bufferView":2,
			"componentType":5126,
			"count":6021,
			"type":"VEC3",
			"min":[-498.883545,-2.02634907,-499.676056
			],
			"max":[499.108582,51.3202438,499.258392
			]
		},
		{
			"bufferView":3,
			"componentType":5126,
			"count":6021,
			"type":"VEC3",
			"min":[1,1,1
			],
			"max":[1,1,1
			]
		}
	],
	"buffers":[
		{
			"uri":"mountains_data.bin",
			"byteLength":204716
		}
	],
	"bufferViews":[
		{
			"buffer":0,
			"byteLength":12042,
			"target":34963
		},
		{
			"buffer":0,
			"byteOffset":12044,
			"byteLength":48168,
			"target":34962
		},
		{
			"buffer":0,
			"byteOffset":60212,
			"byteLength":72252,
			"target":34962
		},
		{
			"buffer":0,
			"byteOffset":132464,
			"byteLength":72252,
			"target":34962
		}
	],
	"nodes":[
		{
			"mesh":0
		}
	],
	"meshes":[
		{
			"primitives":[
				{
					"attributes":{
						"COLOR_0":3,
						"POSITION":2,
						"TEXCOORD_0":1
					},
					"indices":0
				}
			]
		}
	],
	"scenes":[
		{
			"nodes":[0
			]
		}
	],
	"scene":0
}
