{
	"asset":{
		"version":"2.0",
		"generator":"Houdini GLTF 2.0 Exporter"
	},
	"accessors":[
		{
			"bufferView":0,
			"componentType":5123,
			"count":612,
			"type":"SCALAR",
			"min":[0
			],
			"max":[611
			]
		},
		{
			"bufferView":1,
			"componentType":5126,
			"count":612,
			"type":"VEC3",
			"min":[-0.476314008,-0.593448222,-17.8166809
			],
			"max":[0.476313978,18.1934757,-7.19410181
			]
		},
		{
			"bufferView":2,
			"componentType":5126,
			"count":612,
			"type":"VEC3",
			"min":[1,0,0
			],
			"max":[1,0,0
			]
		},
		{
			"bufferView":3,
			"componentType":5126,
			"count":612,
			"type":"SCALAR",
			"min":[0.416666657
			],
			"max":[1
			]
		},
		{
			"bufferView":4,
			"componentType":5126,
			"count":612,
			"type":"VEC2",
			"min":[0,-1.85788393
			],
			"max":[19.2293053,1
			]
		},
		{
			"bufferView":5,
			"componentType":5126,
			"count":612,
			"type":"VEC3",
			"min":[-0.871984482,-0.711162508,-0.504324496
			],
			"max":[0.871984482,0.365786791,1
			]
		},
		{
			"bufferView":6,
			"componentType":5121,
			"count":48,
			"type":"SCALAR",
			"min":[0
			],
			"max":[47
			]
		},
		{
			"bufferView":7,
			"componentType":5126,
			"count":48,
			"type":"VEC3",
			"min":[-0.0500000007,1.96656656,-7.44854832
			],
			"max":[0.0500000007,18.0665665,-7.34854794
			]
		},
		{
			"bufferView":8,
			"componentType":5126,
			"count":48,
			"type":"VEC3",
			"min":[0,1,0
			],
			"max":[0,1,0
			]
		},
		{
			"bufferView":9,
			"componentType":5126,
			"count":48,
			"type":"SCALAR",
			"min":[1
			],
			"max":[1
			]
		},
		{
			"bufferView":10,
			"componentType":5126,
			"count":48,
			"type":"VEC2",
			"min":[0,0.693853259
			],
			"max":[16.1000004,1
			]
		},
		{
			"bufferView":11,
			"componentType":5126,
			"count":48,
			"type":"VEC3",
			"min":[-1,0,-1
			],
			"max":[1,0,1
			]
		},
		{
			"bufferView":12,
			"componentType":5121,
			"count":108,
			"type":"SCALAR",
			"min":[0
			],
			"max":[19
			]
		},
		{
			"bufferView":13,
			"componentType":5126,
			"count":20,
			"type":"VEC3",
			"min":[-1.20000005,0.876239538,-8.44050884
			],
			"max":[1.20000005,3.27623963,-6.36204767
			]
		}
	],
	"buffers":[
		{
			"uri":"pendulum_data.bin",
			"byteLength":33300,
			"name":"main_buffer"
		}
	],
	"bufferViews":[
		{
			"buffer":0,
			"byteLength":1224,
			"target":34963
		},
		{
			"buffer":0,
			"byteOffset":1224,
			"byteLength":7344,
			"target":34962
		},
		{
			"buffer":0,
			"byteOffset":8568,
			"byteLength":7344,
			"target":34962
		},
		{
			"buffer":0,
			"byteOffset":15912,
			"byteLength":2448,
			"target":34962
		},
		{
			"buffer":0,
			"byteOffset":18360,
			"byteLength":4896,
			"target":34962
		},
		{
			"buffer":0,
			"byteOffset":23256,
			"byteLength":7344,
			"target":34962
		},
		{
			"buffer":0,
			"byteOffset":30600,
			"byteLength":48,
			"target":34963
		},
		{
			"buffer":0,
			"byteOffset":30648,
			"byteLength":576,
			"target":34962
		},
		{
			"buffer":0,
			"byteOffset":31224,
			"byteLength":576,
			"target":34962
		},
		{
			"buffer":0,
			"byteOffset":31800,
			"byteLength":192,
			"target":34962
		},
		{
			"buffer":0,
			"byteOffset":31992,
			"byteLength":384,
			"target":34962
		},
		{
			"buffer":0,
			"byteOffset":32376,
			"byteLength":576,
			"target":34962
		},
		{
			"buffer":0,
			"byteOffset":32952,
			"byteLength":108,
			"target":34963
		},
		{
			"buffer":0,
			"byteOffset":33060,
			"byteLength":240,
			"target":34962
		}
	],
	"nodes":[
		{
			"children":[1,2,3
			],
			"name":"Root"
		},
		{
			"name":"stand",
			"mesh":0
		},
		{
			"name":"rope",
			"mesh":1
		},
		{
			"name":"ball",
			"mesh":2
		}
	],
	"meshes":[
		{
			"primitives":[
				{
					"attributes":{
						"NORMAL":5,
						"TEXCOORD_0":4,
						"_up":2,
						"_pscale":3,
						"POSITION":1
					},
					"indices":0
				}
			]
		},
		{
			"primitives":[
				{
					"attributes":{
						"NORMAL":11,
						"TEXCOORD_0":10,
						"_up":8,
						"_pscale":9,
						"POSITION":7
					},
					"indices":6
				}
			]
		},
		{
			"primitives":[
				{
					"attributes":{
						"POSITION":13
					},
					"indices":12
				}
			]
		}
	],
	"scenes":[
		{
			"nodes":[0
			]
		}
	],
	"scene":0
}
