{
	"asset":{
		"version":"2.0",
		"generator":"Houdini GLTF 2.0 Exporter"
	},
	"accessors":[
		{
			"bufferView":0,
			"componentType":5123,
			"count":234,
			"type":"SCALAR",
			"min":[0
			],
			"max":[233
			]
		},
		{
			"bufferView":1,
			"componentType":5126,
			"count":234,
			"type":"VEC3",
			"min":[-0.476314008,-0.218934208,-11.7598763
			],
			"max":[0.476313978,18.1934757,-7.19410181
			]
		},
		{
			"bufferView":2,
			"componentType":5126,
			"count":234,
			"type":"VEC3",
			"min":[1,0,0
			],
			"max":[1,0,0
			]
		},
		{
			"bufferView":3,
			"componentType":5126,
			"count":234,
			"type":"SCALAR",
			"min":[0.416666657
			],
			"max":[1
			]
		},
		{
			"bufferView":4,
			"componentType":5126,
			"count":234,
			"type":"VEC2",
			"min":[0,-1.85788393
			],
			"max":[19.2293053,1
			]
		},
		{
			"bufferView":5,
			"componentType":5126,
			"count":234,
			"type":"VEC3",
			"min":[-0.865997851,-0.618388057,-0.50014466
			],
			"max":[0.86599797,0.319044322,0.999999642
			]
		},
		{
			"bufferView":6,
			"componentType":5121,
			"count":48,
			"type":"SCALAR",
			"min":[0
			],
			"max":[47
			]
		},
		{
			"bufferView":7,
			"componentType":5126,
			"count":48,
			"type":"VEC3",
			"min":[-0.0500000007,1.96656656,-7.44854832
			],
			"max":[0.0500000007,18.0665665,-7.34854794
			]
		},
		{
			"bufferView":8,
			"componentType":5126,
			"count":48,
			"type":"VEC3",
			"min":[0,1,0
			],
			"max":[0,1,0
			]
		},
		{
			"bufferView":9,
			"componentType":5126,
			"count":48,
			"type":"SCALAR",
			"min":[1
			],
			"max":[1
			]
		},
		{
			"bufferView":10,
			"componentType":5126,
			"count":48,
			"type":"VEC2",
			"min":[0,0.693853259
			],
			"max":[16.1000004,1
			]
		},
		{
			"bufferView":11,
			"componentType":5126,
			"count":48,
			"type":"VEC3",
			"min":[-1,0,-1
			],
			"max":[1,0,1
			]
		},
		{
			"bufferView":12,
			"componentType":5123,
			"count":1584,
			"type":"SCALAR",
			"min":[0
			],
			"max":[265
			]
		},
		{
			"bufferView":13,
			"componentType":5126,
			"count":266,
			"type":"VEC3",
			"min":[-0.899999976,1.17623961,-8.30127811
			],
			"max":[0.899999976,2.97623968,-6.5012784
			]
		}
	],
	"buffers":[
		{
			"uri":"pendulum_data.bin",
			"byteLength":20412,
			"name":"main_buffer"
		}
	],
	"bufferViews":[
		{
			"buffer":0,
			"byteLength":468,
			"target":34963
		},
		{
			"buffer":0,
			"byteOffset":468,
			"byteLength":2808,
			"target":34962
		},
		{
			"buffer":0,
			"byteOffset":3276,
			"byteLength":2808,
			"target":34962
		},
		{
			"buffer":0,
			"byteOffset":6084,
			"byteLength":936,
			"target":34962
		},
		{
			"buffer":0,
			"byteOffset":7020,
			"byteLength":1872,
			"target":34962
		},
		{
			"buffer":0,
			"byteOffset":8892,
			"byteLength":2808,
			"target":34962
		},
		{
			"buffer":0,
			"byteOffset":11700,
			"byteLength":48,
			"target":34963
		},
		{
			"buffer":0,
			"byteOffset":11748,
			"byteLength":576,
			"target":34962
		},
		{
			"buffer":0,
			"byteOffset":12324,
			"byteLength":576,
			"target":34962
		},
		{
			"buffer":0,
			"byteOffset":12900,
			"byteLength":192,
			"target":34962
		},
		{
			"buffer":0,
			"byteOffset":13092,
			"byteLength":384,
			"target":34962
		},
		{
			"buffer":0,
			"byteOffset":13476,
			"byteLength":576,
			"target":34962
		},
		{
			"buffer":0,
			"byteOffset":14052,
			"byteLength":3168,
			"target":34963
		},
		{
			"buffer":0,
			"byteOffset":17220,
			"byteLength":3192,
			"target":34962
		}
	],
	"nodes":[
		{
			"children":[1,2,3
			],
			"name":"Root"
		},
		{
			"name":"stand",
			"mesh":0
		},
		{
			"name":"rope",
			"mesh":1
		},
		{
			"name":"ball",
			"mesh":2
		}
	],
	"meshes":[
		{
			"primitives":[
				{
					"attributes":{
						"NORMAL":5,
						"TEXCOORD_0":4,
						"_up":2,
						"_pscale":3,
						"POSITION":1
					},
					"indices":0
				}
			]
		},
		{
			"primitives":[
				{
					"attributes":{
						"NORMAL":11,
						"TEXCOORD_0":10,
						"_up":8,
						"_pscale":9,
						"POSITION":7
					},
					"indices":6
				}
			]
		},
		{
			"primitives":[
				{
					"attributes":{
						"POSITION":13
					},
					"indices":12
				}
			]
		}
	],
	"scenes":[
		{
			"nodes":[0
			]
		}
	],
	"scene":0
}
