{
	"asset":{
		"version":"2.0",
		"generator":"Houdini GLTF 2.0 Exporter"
	},
	"accessors":[
		{
			"bufferView":0,
			"componentType":5123,
			"count":7434,
			"type":"SCALAR",
			"min":[0
			],
			"max":[7433
			]
		},
		{
			"bufferView":1,
			"componentType":5126,
			"count":7434,
			"type":"VEC3",
			"min":[-5.06129932,-0.0492868423,-5.41723156
			],
			"max":[3.88940859,5.34731483,4.85920954
			]
		},
		{
			"bufferView":2,
			"componentType":5126,
			"count":7434,
			"type":"VEC2",
			"min":[0.0042976439,0.0015797019
			],
			"max":[0.994218946,0.994498789
			]
		},
		{
			"bufferView":3,
			"componentType":5126,
			"count":7434,
			"type":"VEC3",
			"min":[-0.99972862,-1,-0.99972862
			],
			"max":[0.999836385,0.994760931,0.99972862
			]
		}
	],
	"buffers":[
		{
			"uri":"arc_data.bin",
			"byteLength":252756,
			"name":"main_buffer"
		}
	],
	"bufferViews":[
		{
			"buffer":0,
			"byteLength":14868,
			"target":34963
		},
		{
			"buffer":0,
			"byteOffset":14868,
			"byteLength":89208,
			"target":34962
		},
		{
			"buffer":0,
			"byteOffset":104076,
			"byteLength":59472,
			"target":34962
		},
		{
			"buffer":0,
			"byteOffset":163548,
			"byteLength":89208,
			"target":34962
		}
	],
	"nodes":[
		{
			"name":"arc",
			"mesh":0
		}
	],
	"meshes":[
		{
			"primitives":[
				{
					"attributes":{
						"NORMAL":3,
						"TEXCOORD_0":2,
						"POSITION":1
					},
					"indices":0,
					"material":0
				}
			]
		}
	],
	"materials":[
		{
			"name":"ArcMat",
			"pbrMetallicRoughness":{
				"metallicFactor":0,
				"roughnessFactor":0.65200001,
				"baseColorTexture":{
					"index":0
				}
			}
		}
	],
	"scenes":[
		{
			"nodes":[0
			]
		}
	],
	"textures":[
		{
			"source":0
		}
	],
	"images":[
		{
			"uri":"arc_diffuse.png",
			"mimeType":"image/png"
		}
	],
	"scene":0
}
