{
	"asset":{
		"version":"2.0",
		"generator":"Houdini GLTF 2.0 Exporter"
	},
	"accessors":[
		{
			"bufferView":0,
			"componentType":5123,
			"count":648,
			"type":"SCALAR",
			"min":[0
			],
			"max":[647
			]
		},
		{
			"bufferView":1,
			"componentType":5126,
			"count":648,
			"type":"VEC3",
			"min":[-11.2954006,0,-12.4399805
			],
			"max":[11.2917061,0.189999998,9.97929287
			]
		},
		{
			"bufferView":2,
			"componentType":5126,
			"count":648,
			"type":"VEC3",
			"min":[-1,0,-0.998850107
			],
			"max":[0.999936044,1,0.999991894
			]
		},
		{
			"bufferView":3,
			"componentType":5123,
			"count":540,
			"type":"SCALAR",
			"min":[0
			],
			"max":[539
			]
		},
		{
			"bufferView":4,
			"componentType":5126,
			"count":540,
			"type":"VEC3",
			"min":[-7.68000031,17.8775139,-7.64098787
			],
			"max":[7.67846632,18.3624878,7.6409874
			]
		},
		{
			"bufferView":5,
			"componentType":5126,
			"count":540,
			"type":"VEC3",
			"min":[0,1,0
			],
			"max":[0,1,0
			]
		},
		{
			"bufferView":6,
			"componentType":5126,
			"count":540,
			"type":"SCALAR",
			"min":[1
			],
			"max":[1
			]
		},
		{
			"bufferView":7,
			"componentType":5126,
			"count":540,
			"type":"VEC2",
			"min":[0,-0.454922676
			],
			"max":[46.4106445,1
			]
		},
		{
			"bufferView":8,
			"componentType":5126,
			"count":540,
			"type":"VEC3",
			"min":[-0.999999523,-0.866223454,-0.994730651
			],
			"max":[0.999998033,0.866223395,0.994730651
			]
		}
	],
	"buffers":[
		{
			"uri":"pendulum_base_data.bin",
			"byteLength":43848,
			"name":"main_buffer"
		}
	],
	"bufferViews":[
		{
			"buffer":0,
			"byteLength":1296,
			"target":34963
		},
		{
			"buffer":0,
			"byteOffset":1296,
			"byteLength":7776,
			"target":34962
		},
		{
			"buffer":0,
			"byteOffset":9072,
			"byteLength":7776,
			"target":34962
		},
		{
			"buffer":0,
			"byteOffset":16848,
			"byteLength":1080,
			"target":34963
		},
		{
			"buffer":0,
			"byteOffset":17928,
			"byteLength":6480,
			"target":34962
		},
		{
			"buffer":0,
			"byteOffset":24408,
			"byteLength":6480,
			"target":34962
		},
		{
			"buffer":0,
			"byteOffset":30888,
			"byteLength":2160,
			"target":34962
		},
		{
			"buffer":0,
			"byteOffset":33048,
			"byteLength":4320,
			"target":34962
		},
		{
			"buffer":0,
			"byteOffset":37368,
			"byteLength":6480,
			"target":34962
		}
	],
	"nodes":[
		{
			"children":[1,2
			],
			"name":"Root"
		},
		{
			"name":"base",
			"mesh":0
		},
		{
			"name":"ring",
			"mesh":1
		}
	],
	"meshes":[
		{
			"primitives":[
				{
					"attributes":{
						"NORMAL":2,
						"POSITION":1
					},
					"indices":0
				}
			]
		},
		{
			"primitives":[
				{
					"attributes":{
						"NORMAL":8,
						"TEXCOORD_0":7,
						"_up":5,
						"_pscale":6,
						"POSITION":4
					},
					"indices":3
				}
			]
		}
	],
	"scenes":[
		{
			"nodes":[0
			]
		}
	],
	"scene":0
}
