{
	"asset":{
		"version":"2.0",
		"generator":"Houdini GLTF 2.0 Exporter"
	},
	"accessors":[
		{
			"bufferView":0,
			"componentType":5123,
			"count":648,
			"type":"SCALAR",
			"min":[0
			],
			"max":[647
			]
		},
		{
			"bufferView":1,
			"componentType":5126,
			"count":648,
			"type":"VEC3",
			"min":[-16.9431019,-0.660000026,-18.6599712
			],
			"max":[16.9375591,0.0899999738,14.9689388
			]
		},
		{
			"bufferView":2,
			"componentType":5126,
			"count":648,
			"type":"VEC3",
			"min":[-1,0,-0.998850107
			],
			"max":[0.999936044,1,0.999991894
			]
		}
	],
	"buffers":[
		{
			"uri":"pendulum_base_data.bin",
			"byteLength":16848,
			"name":"main_buffer"
		}
	],
	"bufferViews":[
		{
			"buffer":0,
			"byteLength":1296,
			"target":34963
		},
		{
			"buffer":0,
			"byteOffset":1296,
			"byteLength":7776,
			"target":34962
		},
		{
			"buffer":0,
			"byteOffset":9072,
			"byteLength":7776,
			"target":34962
		}
	],
	"nodes":[
		{
			"children":[1
			],
			"name":"Root"
		},
		{
			"name":"base",
			"mesh":0
		}
	],
	"meshes":[
		{
			"primitives":[
				{
					"attributes":{
						"NORMAL":2,
						"POSITION":1
					},
					"indices":0
				}
			]
		}
	],
	"scenes":[
		{
			"nodes":[0
			]
		}
	],
	"scene":0
}
