{
	"asset":{
		"version":"2.0",
		"generator":"Houdini GLTF 2.0 Exporter"
	},
	"accessors":[
		{
			"bufferView":0,
			"componentType":5123,
			"count":576,
			"type":"SCALAR",
			"min":[0
			],
			"max":[127
			]
		},
		{
			"bufferView":1,
			"componentType":5126,
			"count":128,
			"type":"VEC3",
			"min":[-0.200000003,0,-30.2000008
			],
			"max":[0.200000003,10,0.200000003
			]
		}
	],
	"buffers":[
		{
			"uri":"cubes_data.bin",
			"byteLength":2688
		}
	],
	"bufferViews":[
		{
			"buffer":0,
			"byteLength":1152,
			"target":34963
		},
		{
			"buffer":0,
			"byteOffset":1152,
			"byteLength":1536,
			"target":34962
		}
	],
	"nodes":[
		{
			"mesh":0
		}
	],
	"meshes":[
		{
			"primitives":[
				{
					"attributes":{
						"POSITION":1
					},
					"indices":0
				}
			]
		}
	],
	"scenes":[
		{
			"nodes":[0
			]
		}
	],
	"scene":0
}
