{
	"asset":{
		"version":"2.0",
		"generator":"Houdini GLTF 2.0 Exporter"
	},
	"accessors":[
		{
			"bufferView":0,
			"componentType":5123,
			"count":3186,
			"type":"SCALAR",
			"min":[0
			],
			"max":[3185
			]
		},
		{
			"bufferView":1,
			"componentType":5126,
			"count":3186,
			"type":"VEC3",
			"min":[-1.11296403,-0.187385768,-0.927352428
			],
			"max":[1.0110724,0.499534905,1.91695178
			]
		},
		{
			"bufferView":2,
			"componentType":5126,
			"count":3186,
			"type":"VEC3",
			"min":[-0.999184251,-0.999999642,-0.998448431
			],
			"max":[0.998073518,0.998995602,0.991905391
			]
		}
	],
	"buffers":[
		{
			"uri":"dried_body_data.bin",
			"byteLength":82836,
			"name":"main_buffer"
		}
	],
	"bufferViews":[
		{
			"buffer":0,
			"byteLength":6372,
			"target":34963
		},
		{
			"buffer":0,
			"byteOffset":6372,
			"byteLength":38232,
			"target":34962
		},
		{
			"buffer":0,
			"byteOffset":44604,
			"byteLength":38232,
			"target":34962
		}
	],
	"nodes":[
		{
			"name":"geo1",
			"mesh":0
		}
	],
	"meshes":[
		{
			"primitives":[
				{
					"attributes":{
						"NORMAL":2,
						"POSITION":1
					},
					"indices":0
				}
			]
		}
	],
	"scenes":[
		{
			"nodes":[0
			]
		}
	],
	"scene":0
}
