{
	"asset":{
		"version":"2.0",
		"generator":"Houdini GLTF 2.0 Exporter"
	},
	"accessors":[
		{
			"bufferView":0,
			"componentType":5121,
			"count":60,
			"type":"SCALAR",
			"min":[0
			],
			"max":[59
			]
		},
		{
			"bufferView":1,
			"componentType":5126,
			"count":60,
			"type":"VEC3",
			"min":[-0.0777116045,2.28727722,0.147622257
			],
			"max":[0.0751317441,2.30562258,0.176552892
			]
		},
		{
			"bufferView":2,
			"componentType":5126,
			"count":60,
			"type":"VEC2",
			"min":[0.353801161,0.311060429
			],
			"max":[0.87564373,0.933723211
			]
		},
		{
			"bufferView":3,
			"componentType":5123,
			"count":6006,
			"type":"SCALAR",
			"min":[0
			],
			"max":[6005
			]
		},
		{
			"bufferView":4,
			"componentType":5126,
			"count":6006,
			"type":"VEC3",
			"min":[-0.106135875,2.05905271,0.0980021656
			],
			"max":[0.115694694,2.49132752,0.201860026
			]
		},
		{
			"bufferView":5,
			"componentType":5126,
			"count":6006,
			"type":"VEC2",
			"min":[0.000974655326,0.0161061287
			],
			"max":[0.997191668,0.999025345
			]
		}
	],
	"buffers":[
		{
			"uri":"mask_data.bin",
			"byteLength":133392,
			"name":"main_buffer"
		}
	],
	"bufferViews":[
		{
			"buffer":0,
			"byteLength":60,
			"target":34963
		},
		{
			"buffer":0,
			"byteOffset":60,
			"byteLength":720,
			"target":34962
		},
		{
			"buffer":0,
			"byteOffset":780,
			"byteLength":480,
			"target":34962
		},
		{
			"buffer":0,
			"byteOffset":1260,
			"byteLength":12012,
			"target":34963
		},
		{
			"buffer":0,
			"byteOffset":13272,
			"byteLength":72072,
			"target":34962
		},
		{
			"buffer":0,
			"byteOffset":85344,
			"byteLength":48048,
			"target":34962
		}
	],
	"nodes":[
		{
			"children":[1,2
			],
			"name":"Root"
		},
		{
			"name":"eyes",
			"mesh":0
		},
		{
			"name":"body",
			"mesh":1
		}
	],
	"meshes":[
		{
			"primitives":[
				{
					"attributes":{
						"TEXCOORD_0":2,
						"POSITION":1
					},
					"indices":0,
					"material":0
				}
			]
		},
		{
			"primitives":[
				{
					"attributes":{
						"TEXCOORD_0":5,
						"POSITION":4
					},
					"indices":3,
					"material":0
				}
			]
		}
	],
	"materials":[
		{
			"name":"MaskMat",
			"pbrMetallicRoughness":{
				"metallicFactor":0,
				"roughnessFactor":0.65200001,
				"baseColorTexture":{
					"index":0
				}
			}
		}
	],
	"scenes":[
		{
			"nodes":[0
			]
		}
	],
	"textures":[
		{
			"source":0
		}
	],
	"images":[
		{
			"uri":"mask_basecolor.png",
			"mimeType":"image/png"
		}
	],
	"scene":0
}
