{
	"asset":{
		"version":"2.0",
		"generator":"Houdini GLTF 2.0 Exporter"
	},
	"accessors":[
		{
			"bufferView":0,
			"componentType":5123,
			"count":3900,
			"type":"SCALAR",
			"min":[0
			],
			"max":[3899
			]
		},
		{
			"bufferView":1,
			"componentType":5126,
			"count":3900,
			"type":"VEC3",
			"min":[-0.208387896,-0.371656537,-0.218097523
			],
			"max":[0.267463624,0.555621624,0.00468927901
			]
		},
		{
			"bufferView":2,
			"componentType":5126,
			"count":3900,
			"type":"VEC3",
			"min":[1,1,1
			],
			"max":[1,1,1
			]
		},
		{
			"bufferView":3,
			"componentType":5126,
			"count":3900,
			"type":"VEC2",
			"min":[0,0.0277244449
			],
			"max":[0.999083102,1
			]
		},
		{
			"bufferView":4,
			"componentType":5125,
			"count":3900,
			"type":"SCALAR",
			"min":[0
			],
			"max":[0
			]
		},
		{
			"bufferView":5,
			"componentType":5126,
			"count":3900,
			"type":"SCALAR",
			"min":[0.447519392
			],
			"max":[0.447519392
			]
		}
	],
	"buffers":[
		{
			"uri":"mask_data.bin",
			"byteLength":163800,
			"name":"main_buffer"
		}
	],
	"bufferViews":[
		{
			"buffer":0,
			"byteLength":7800,
			"target":34963
		},
		{
			"buffer":0,
			"byteOffset":7800,
			"byteLength":46800,
			"target":34962
		},
		{
			"buffer":0,
			"byteOffset":54600,
			"byteLength":46800,
			"target":34962
		},
		{
			"buffer":0,
			"byteOffset":101400,
			"byteLength":31200,
			"target":34962
		},
		{
			"buffer":0,
			"byteOffset":132600,
			"byteLength":15600,
			"target":34962
		},
		{
			"buffer":0,
			"byteOffset":148200,
			"byteLength":15600,
			"target":34962
		}
	],
	"nodes":[
		{
			"name":"mask",
			"mesh":0
		}
	],
	"meshes":[
		{
			"primitives":[
				{
					"attributes":{
						"_coverage":5,
						"_numnonpacked":4,
						"COLOR_0":2,
						"TEXCOORD_0":3,
						"POSITION":1
					},
					"indices":0,
					"material":0
				}
			]
		}
	],
	"materials":[
		{
			"name":"MaskMat",
			"pbrMetallicRoughness":{
				"metallicFactor":0,
				"roughnessFactor":0.65200001,
				"baseColorTexture":{
					"index":0
				}
			}
		}
	],
	"scenes":[
		{
			"nodes":[0
			]
		}
	],
	"textures":[
		{
			"source":0
		}
	],
	"images":[
		{
			"uri":"mask_basecolor.png",
			"mimeType":"image/png"
		}
	],
	"scene":0
}
