{
	"asset":{
		"version":"2.0",
		"generator":"Houdini GLTF 2.0 Exporter"
	},
	"accessors":[
		{
			"bufferView":0,
			"componentType":5121,
			"count":66,
			"type":"SCALAR",
			"min":[0
			],
			"max":[65
			]
		},
		{
			"bufferView":1,
			"componentType":5126,
			"count":66,
			"type":"VEC3",
			"min":[-0.0777116045,2.28727722,0.147622257
			],
			"max":[0.0751317441,2.30562258,0.176552892
			]
		},
		{
			"bufferView":2,
			"componentType":5126,
			"count":66,
			"type":"VEC2",
			"min":[0.353801161,0.311060429
			],
			"max":[0.87564373,0.933723211
			]
		},
		{
			"bufferView":3,
			"componentType":5126,
			"count":66,
			"type":"VEC3",
			"min":[-0.580672622,-0.028489856,0.81212002
			],
			"max":[0.483523577,0.0694093555,0.993618488
			]
		},
		{
			"bufferView":4,
			"componentType":5123,
			"count":6000,
			"type":"SCALAR",
			"min":[0
			],
			"max":[5999
			]
		},
		{
			"bufferView":5,
			"componentType":5126,
			"count":6000,
			"type":"VEC3",
			"min":[-0.106135875,2.05905271,0.0980021656
			],
			"max":[0.115694694,2.49132752,0.201860026
			]
		},
		{
			"bufferView":6,
			"componentType":5126,
			"count":6000,
			"type":"VEC2",
			"min":[0.000974655326,0.0161061287
			],
			"max":[0.997191668,0.999025345
			]
		},
		{
			"bufferView":7,
			"componentType":5126,
			"count":6000,
			"type":"VEC3",
			"min":[-0.986681581,-1,-1
			],
			"max":[0.998884618,1,0.999934256
			]
		}
	],
	"buffers":[
		{
			"uri":"mask_data.bin",
			"byteLength":206180,
			"name":"main_buffer"
		}
	],
	"bufferViews":[
		{
			"buffer":0,
			"byteLength":66,
			"target":34963
		},
		{
			"buffer":0,
			"byteOffset":68,
			"byteLength":792,
			"target":34962
		},
		{
			"buffer":0,
			"byteOffset":860,
			"byteLength":528,
			"target":34962
		},
		{
			"buffer":0,
			"byteOffset":1388,
			"byteLength":792,
			"target":34962
		},
		{
			"buffer":0,
			"byteOffset":2180,
			"byteLength":12000,
			"target":34963
		},
		{
			"buffer":0,
			"byteOffset":14180,
			"byteLength":72000,
			"target":34962
		},
		{
			"buffer":0,
			"byteOffset":86180,
			"byteLength":48000,
			"target":34962
		},
		{
			"buffer":0,
			"byteOffset":134180,
			"byteLength":72000,
			"target":34962
		}
	],
	"nodes":[
		{
			"children":[1,2
			],
			"name":"Root"
		},
		{
			"name":"eyes",
			"mesh":0
		},
		{
			"name":"body",
			"mesh":1
		}
	],
	"meshes":[
		{
			"primitives":[
				{
					"attributes":{
						"NORMAL":3,
						"TEXCOORD_0":2,
						"POSITION":1
					},
					"indices":0,
					"material":0
				}
			]
		},
		{
			"primitives":[
				{
					"attributes":{
						"NORMAL":7,
						"TEXCOORD_0":6,
						"POSITION":5
					},
					"indices":4,
					"material":0
				}
			]
		}
	],
	"materials":[
		{
			"name":"MaskMat",
			"pbrMetallicRoughness":{
				"metallicFactor":0,
				"roughnessFactor":0.65200001,
				"baseColorTexture":{
					"index":0
				}
			}
		}
	],
	"scenes":[
		{
			"nodes":[0
			]
		}
	],
	"textures":[
		{
			"source":0
		}
	],
	"images":[
		{
			"uri":"mask_basecolor.png",
			"mimeType":"image/png"
		}
	],
	"scene":0
}
