{
	"asset":{
		"version":"2.0",
		"generator":"Houdini GLTF 2.0 Exporter"
	},
	"accessors":[
		{
			"bufferView":0,
			"componentType":5123,
			"count":24696,
			"type":"SCALAR",
			"min":[0
			],
			"max":[24695
			]
		},
		{
			"bufferView":1,
			"componentType":5126,
			"count":24696,
			"type":"VEC3",
			"min":[-500,-0.899999976,-500
			],
			"max":[500,0.64126575,500
			]
		},
		{
			"bufferView":2,
			"componentType":5126,
			"count":24696,
			"type":"VEC2",
			"min":[-1.87848782e-05,-4.30345535e-05
			],
			"max":[1.00006068,1.00004077
			]
		},
		{
			"bufferView":3,
			"componentType":5126,
			"count":24696,
			"type":"VEC3",
			"min":[1,1,1
			],
			"max":[1,1,1
			]
		},
		{
			"bufferView":4,
			"componentType":5126,
			"count":24696,
			"type":"SCALAR",
			"min":[-0.275079548
			],
			"max":[0.725597441
			]
		},
		{
			"bufferView":5,
			"componentType":5126,
			"count":24696,
			"type":"SCALAR",
			"min":[0
			],
			"max":[0
			]
		},
		{
			"bufferView":6,
			"componentType":5126,
			"count":24696,
			"type":"SCALAR",
			"min":[-0.0942563117
			],
			"max":[1.01541042
			]
		},
		{
			"bufferView":7,
			"componentType":5126,
			"count":24696,
			"type":"VEC3",
			"min":[-0.978493631,-0.999998391,-0.9935202
			],
			"max":[0.968024015,1,0.981351495
			]
		}
	],
	"buffers":[
		{
			"uri":"dunes_data.bin",
			"byteLength":1432368,
			"name":"main_buffer"
		}
	],
	"bufferViews":[
		{
			"buffer":0,
			"byteLength":49392,
			"target":34963
		},
		{
			"buffer":0,
			"byteOffset":49392,
			"byteLength":296352,
			"target":34962
		},
		{
			"buffer":0,
			"byteOffset":345744,
			"byteLength":197568,
			"target":34962
		},
		{
			"buffer":0,
			"byteOffset":543312,
			"byteLength":296352,
			"target":34962
		},
		{
			"buffer":0,
			"byteOffset":839664,
			"byteLength":98784,
			"target":34962
		},
		{
			"buffer":0,
			"byteOffset":938448,
			"byteLength":98784,
			"target":34962
		},
		{
			"buffer":0,
			"byteOffset":1037232,
			"byteLength":98784,
			"target":34962
		},
		{
			"buffer":0,
			"byteOffset":1136016,
			"byteLength":296352,
			"target":34962
		}
	],
	"nodes":[
		{
			"name":"ground1",
			"mesh":0
		}
	],
	"meshes":[
		{
			"primitives":[
				{
					"attributes":{
						"NORMAL":7,
						"_retention":6,
						"_mask":5,
						"COLOR_0":3,
						"_height":4,
						"TEXCOORD_0":2,
						"POSITION":1
					},
					"indices":0,
					"material":0
				}
			]
		}
	],
	"materials":[
		{
			"name":"principledshader",
			"pbrMetallicRoughness":{
				"baseColorFactor":[0.152999997,0.0478023514,0.00823761523,1
				],
				"metallicFactor":0,
				"roughnessFactor":0.56400001
			}
		}
	],
	"scenes":[
		{
			"nodes":[0
			]
		}
	],
	"scene":0
}
