{
	"asset":{
		"version":"2.0",
		"generator":"Houdini GLTF 2.0 Exporter"
	},
	"accessors":[
		{
			"bufferView":0,
			"componentType":5123,
			"count":1524,
			"type":"SCALAR",
			"min":[0
			],
			"max":[1523
			]
		},
		{
			"bufferView":1,
			"componentType":5126,
			"count":1524,
			"type":"SCALAR",
			"min":[-6.07285929
			],
			"max":[3.27972031
			]
		},
		{
			"bufferView":2,
			"componentType":5126,
			"count":1524,
			"type":"SCALAR",
			"min":[-0.649106443
			],
			"max":[3.59843302
			]
		},
		{
			"bufferView":3,
			"componentType":5126,
			"count":1524,
			"type":"SCALAR",
			"min":[0.537069738
			],
			"max":[308.893951
			]
		},
		{
			"bufferView":4,
			"componentType":5126,
			"count":1524,
			"type":"VEC2",
			"min":[0.224635035,0.0656962991
			],
			"max":[0.909336686,0.807251275
			]
		},
		{
			"bufferView":5,
			"componentType":5126,
			"count":1524,
			"type":"SCALAR",
			"min":[-6.07285929
			],
			"max":[3.27972031
			]
		},
		{
			"bufferView":6,
			"componentType":5126,
			"count":1524,
			"type":"VEC3",
			"min":[-18.2457981,4.99803067e-16,-27.4210243
			],
			"max":[25.9394417,30.48209,40.6441765
			]
		},
		{
			"bufferView":7,
			"componentType":5126,
			"count":1524,
			"type":"VEC3",
			"min":[0.726913154,0.465999991,0.205086857
			],
			"max":[0.726913154,0.465999991,0.205086857
			]
		},
		{
			"bufferView":8,
			"componentType":5126,
			"count":1524,
			"type":"VEC3",
			"min":[-0.999538481,-0.563712358,-0.999824226
			],
			"max":[0.993764222,0.999986112,0.999163389
			]
		}
	],
	"buffers":[
		{
			"uri":"cliff_data.bin",
			"byteLength":94488,
			"name":"main_buffer"
		}
	],
	"bufferViews":[
		{
			"buffer":0,
			"byteLength":3048,
			"target":34963
		},
		{
			"buffer":0,
			"byteOffset":3048,
			"byteLength":6096,
			"target":34962
		},
		{
			"buffer":0,
			"byteOffset":9144,
			"byteLength":6096,
			"target":34962
		},
		{
			"buffer":0,
			"byteOffset":15240,
			"byteLength":6096,
			"target":34962
		},
		{
			"buffer":0,
			"byteOffset":21336,
			"byteLength":12192,
			"target":34962
		},
		{
			"buffer":0,
			"byteOffset":33528,
			"byteLength":6096,
			"target":34962
		},
		{
			"buffer":0,
			"byteOffset":39624,
			"byteLength":18288,
			"target":34962
		},
		{
			"buffer":0,
			"byteOffset":57912,
			"byteLength":18288,
			"target":34962
		},
		{
			"buffer":0,
			"byteOffset":76200,
			"byteLength":18288,
			"target":34962
		}
	],
	"nodes":[
		{
			"name":"cliff",
			"mesh":0
		}
	],
	"meshes":[
		{
			"primitives":[
				{
					"attributes":{
						"POSITION":6,
						"TEXCOORD_0":4,
						"_height":3,
						"NORMAL":8,
						"_cliffs":2,
						"COLOR_0":7,
						"_mesa":5,
						"_mask":1
					},
					"indices":0
				}
			]
		}
	],
	"scenes":[
		{
			"nodes":[0
			]
		}
	],
	"scene":0
}
