{
	"asset":{
		"version":"2.0",
		"generator":"Houdini GLTF 2.0 Exporter"
	},
	"accessors":[
		{
			"bufferView":0,
			"componentType":5123,
			"count":4638,
			"type":"SCALAR",
			"min":[0
			],
			"max":[4637
			]
		},
		{
			"bufferView":1,
			"componentType":5126,
			"count":4638,
			"type":"VEC3",
			"min":[-2.00823379,-0.0342786312,-0.542703927
			],
			"max":[2.94855857,1.5055728,4.11076307
			]
		},
		{
			"bufferView":2,
			"componentType":5126,
			"count":4638,
			"type":"VEC2",
			"min":[0,4.39882278e-05
			],
			"max":[0.980256319,1
			]
		}
	],
	"buffers":[
		{
			"uri":"ruins_data.bin",
			"byteLength":102036,
			"name":"main_buffer"
		}
	],
	"bufferViews":[
		{
			"buffer":0,
			"byteLength":9276,
			"target":34963
		},
		{
			"buffer":0,
			"byteOffset":9276,
			"byteLength":55656,
			"target":34962
		},
		{
			"buffer":0,
			"byteOffset":64932,
			"byteLength":37104,
			"target":34962
		}
	],
	"nodes":[
		{
			"name":"pillar",
			"mesh":0
		}
	],
	"meshes":[
		{
			"primitives":[
				{
					"attributes":{
						"TEXCOORD_0":2,
						"POSITION":1
					},
					"indices":0,
					"material":0
				}
			]
		}
	],
	"materials":[
		{
			"name":"ruinMat",
			"pbrMetallicRoughness":{
				"metallicFactor":0,
				"roughnessFactor":0.65200001,
				"baseColorTexture":{
					"index":0
				}
			}
		}
	],
	"scenes":[
		{
			"nodes":[0
			]
		}
	],
	"textures":[
		{
			"source":0
		}
	],
	"images":[
		{
			"uri":"pillar_texture.png",
			"mimeType":"image/png"
		}
	],
	"scene":0
}
