{
	"asset":{
		"version":"2.0",
		"generator":"Houdini GLTF 2.0 Exporter"
	},
	"accessors":[
		{
			"bufferView":0,
			"componentType":5123,
			"count":6756,
			"type":"SCALAR",
			"min":[0
			],
			"max":[6755
			]
		},
		{
			"bufferView":1,
			"componentType":5126,
			"count":6756,
			"type":"VEC3",
			"min":[-2.32521033,-0.0851265416,-2.11756158
			],
			"max":[4.73573494,1.32957149,4.43106556
			]
		},
		{
			"bufferView":2,
			"componentType":5126,
			"count":6756,
			"type":"VEC2",
			"min":[0.00460512983,0.000924170017
			],
			"max":[0.997475863,1.00460517
			]
		}
	],
	"buffers":[
		{
			"uri":"ruins_data.bin",
			"byteLength":148632,
			"name":"main_buffer"
		}
	],
	"bufferViews":[
		{
			"buffer":0,
			"byteLength":13512,
			"target":34963
		},
		{
			"buffer":0,
			"byteOffset":13512,
			"byteLength":81072,
			"target":34962
		},
		{
			"buffer":0,
			"byteOffset":94584,
			"byteLength":54048,
			"target":34962
		}
	],
	"nodes":[
		{
			"name":"pillar",
			"mesh":0
		}
	],
	"meshes":[
		{
			"primitives":[
				{
					"attributes":{
						"TEXCOORD_0":2,
						"POSITION":1
					},
					"indices":0,
					"material":0
				}
			]
		}
	],
	"materials":[
		{
			"name":"ruinMat",
			"pbrMetallicRoughness":{
				"metallicFactor":0,
				"roughnessFactor":0.65200001,
				"baseColorTexture":{
					"index":0
				}
			}
		}
	],
	"scenes":[
		{
			"nodes":[0
			]
		}
	],
	"textures":[
		{
			"source":0
		}
	],
	"images":[
		{
			"uri":"pillar_texture.png",
			"mimeType":"image/png"
		}
	],
	"scene":0
}
